<svg id="Camada_1" data-name="Camada 1" xmlns="http://www.w3.org/2000/svg" viewBox="0 0 80 80"><defs><style>.cls-1{fill:#e9d01f;}.cls-2{fill:#355da8;}.cls-3{fill:#249338;}</style></defs><g id="Grupo_302" data-name="Grupo 302"><path id="Caminho_532" data-name="Caminho 532" class="cls-1" d="M.76,37.24C.7,38.15.66,39.08.66,40S.7,42,.78,43l39.58,25.4L79.54,42.92c.07-1,.12-1.93.12-2.91s0-1.89-.12-2.82L40.09,11.66ZM62.31,40a21.08,21.08,0,0,1-.45,4.33h0c0,.23-.11.46-.17.69s-.06.28-.1.41a20.79,20.79,0,0,1-.69,2.2h0A21.27,21.27,0,0,1,20.67,33.84h-.06A20.17,20.17,0,0,1,22,30.36h0A21.27,21.27,0,0,1,62.31,40Z"/><path id="Caminho_533" data-name="Caminho 533" class="cls-2" d="M20.68,33.86A21.27,21.27,0,0,0,60.89,47.64,51,51,0,0,0,20.68,33.86ZM23.34,48l-.46-.25-.23.12-.21.1h0l.08-.42,0-.08-.35-.37.49-.07.24-.45.21.47.5.1-.38.33Zm.3-10.73-.67.33.17-.76-.56-.56.77-.08.34-.69.33.71.74.13-.55.52.11.76Zm16.7,9.86.37,0,.17-.33L41,47l.37.09-.27.25,0,.38-.33-.18-.33.16.08-.38Zm1.42,9.8-.27-.15-.3.15.07-.33L41,56.31l.32,0,.15-.28.13.3.32.05-.23.21Zm10.8-.33-.4-.24-.4.22.1-.47-.32-.33.45-.07.2-.41.19.43.45.08-.34.34ZM56.67,50l-.37-.19-.37.17.08-.38-.28-.27.4,0,.2-.33.16.33.42.08-.32.25Zm1.92-2.67.16-.34.17.35.35.07-.27.27,0,.37-.33-.17-.34.17.09-.39-.27-.28Zm-2.86,0,.3-.58.27.6.63.12-.48.43.1.65L56,48.17l-.58.3.13-.65-.45-.47Zm-.25,3.56.24-.45.21.46.5.1-.39.34.07.51-.43-.25-.45.24.1-.5L55,50.91Zm-1.73.65.18-.34.17.34.38.08-.28.27,0,.4-.34-.2-.35.17.07-.39-.27-.28Zm-1.71,0,.2-.39.17.4.42.07-.32.3.07.44-.37-.24-.38.2.08-.43-.28-.3Zm-.11,2.28.21-.41.2.43.5.09-.38.31.07.47-.42-.22-.45.2.1-.46-.33-.34Zm-3.07-2.23.16-.33.17.33.37.07-.27.26,0,.39L49,52l-.34.17.07-.37-.25-.29ZM48,54.92l.74.14-.57.52.11.76L47.63,56l-.66.33.13-.74L46.58,55l.75-.08.35-.69ZM46.47,39.05l.25-.46.21.49.5.09-.37.37.07.53-.45-.27L46.2,40l.1-.53-.37-.38Zm-.61,12.47.17-.33.16.33.35.07-.27.27,0,.38L46,52l-.33.17.08-.37-.27-.28Zm-2.52-6.44.23-.45.2.47.5.08-.37.35.07.52-.44-.27-.46.23.1-.49-.34-.39Zm-1.21,5.49-.56-.33-.59.3.14-.65-.47-.48.67-.07.3-.6.27.62.65.11-.5.45Zm-1.21-7.83.35-.68.33.7.75.13-.57.54.12.74-.67-.36-.67.33.14-.77-.52-.55Zm-1.84,2.34.23-.47.21.49.49.08-.37.35.07.5-.45-.25-.45.24.1-.5-.33-.38Zm-6-4.42.36-.67.32.7.75.13-.56.52.1.77-.66-.38-.67.33.15-.75-.54-.55Zm0,10.63.36-.67.32.7.75.14-.56.49.1.79-.66-.39-.67.34.15-.75-.54-.56ZM29.69,47l.23-.45.21.47.5.09-.38.35.07.49-.44-.23-.45.22.1-.5-.35-.37Zm-.64,1.87.22.47.49.1-.38.33.07.52L29,50l-.45.24.1-.5-.35-.39.5-.06ZM27.77,44l.13-.29L28,44l.32,0-.23.22.05.34-.29-.17-.28.13.07-.32L27.45,44Zm-1.62,1,.74.14-.55.51.1.77L25.77,46l-.67.33.15-.74L24.72,45l.74-.09.35-.67ZM22.09,30.37a52.19,52.19,0,0,1,39.78,14,21.27,21.27,0,0,0-39.78-14Zm25.4,2.71.32-.6.28.63.67.12-.49.45.1.68L47.76,34l-.6.3.14-.67-.47-.5Z"/><path id="Caminho_534" data-name="Caminho 534" class="cls-3" d="M79.53,37.19,40.09,11.66.75,37.24a39.49,39.49,0,0,1,78.78-.05ZM.77,43a39.49,39.49,0,0,0,78.76,0L40.35,68.35Zm50.77-2.78,1.49.92.21-.33-1.12-.67.33-.55,1,.62.22-.33-1-.62.27-.45,1.06.67.2-.34-1.46-.92-1.22,2Zm2.77.86a.56.56,0,0,0,0,.36.51.51,0,0,0,.23.27.47.47,0,0,0,.34.1.23.23,0,0,0,.21-.13.23.23,0,0,0,0-.14.26.26,0,0,0-.09-.16,2.55,2.55,0,0,0-.26-.3,1.18,1.18,0,0,1-.33-.47.6.6,0,0,1,.06-.52.67.67,0,0,1,.27-.23.66.66,0,0,1,.37-.05,1.14,1.14,0,0,1,.43.17.94.94,0,0,1,.45.51.71.71,0,0,1-.06.57l-.42-.24a.34.34,0,0,0,0-.28.45.45,0,0,0-.22-.23.5.5,0,0,0-.31-.1.16.16,0,0,0-.14.08.2.2,0,0,0,0,.17,1.1,1.1,0,0,0,.28.37,1.6,1.6,0,0,1,.33.4.64.64,0,0,1,0,.7.78.78,0,0,1-.3.27.77.77,0,0,1-.4.05A1.34,1.34,0,0,1,54.3,42a.94.94,0,0,1-.47-.53.92.92,0,0,1,.07-.67ZM32.43,33.5l-1.76-.17L30.88,31l1.72.17,0,.4-1.25-.12-.05.5,1.17.12,0,.4-1.17-.12,0,.63,1.3.12Zm23.79,8.79a.54.54,0,0,0,0,.37.49.49,0,0,0,.23.28.54.54,0,0,0,.34.12.22.22,0,0,0,.21-.12.19.19,0,0,0,0-.15.37.37,0,0,0-.09-.16,1.76,1.76,0,0,0-.24-.3,1.22,1.22,0,0,1-.3-.5.59.59,0,0,1,.33-.74.55.55,0,0,1,.38,0,1.35,1.35,0,0,1,.44.2,1,1,0,0,1,.43.54.67.67,0,0,1-.1.55l-.4-.25a.35.35,0,0,0,0-.28.4.4,0,0,0-.2-.24.48.48,0,0,0-.3-.11.17.17,0,0,0-.16.08.2.2,0,0,0,0,.17,1,1,0,0,0,.27.36,3.39,3.39,0,0,1,.33.42.66.66,0,0,1,0,.7.72.72,0,0,1-.32.25.61.61,0,0,1-.4.05,1.15,1.15,0,0,1-.46-.22.91.91,0,0,1-.45-.55.89.89,0,0,1,.1-.67v0ZM33.45,33.68,33,33.61l.33-2.33.7.11L34.24,33l.65-1.49.7.1-.34,2.3-.45-.06.28-1.82-.74,1.75-.45-.07-.19-1.88Zm13.74,4a.94.94,0,0,1-.17-.58,1.47,1.47,0,0,1,.17-.62,1.38,1.38,0,0,1,.43-.5,1,1,0,0,1,1.14,0,1,1,0,0,1,.51.47.78.78,0,0,1,0,.58l-.45-.13a.47.47,0,0,0,0-.33.57.57,0,0,0-.27-.24.67.67,0,0,0-.52-.05.81.81,0,0,0-.43.44.92.92,0,0,0-.12.63.62.62,0,0,0,.34.4.55.55,0,0,0,.28.09h.3l.14-.27-.49-.25.19-.33.9.45-.42.83a1.67,1.67,0,0,1-.5,0,1.76,1.76,0,0,1-.55-.17,1.32,1.32,0,0,1-.5-.44ZM24,30.68a1.62,1.62,0,0,0-.49.08,1.1,1.1,0,0,0-.31.2,1.24,1.24,0,0,0-.23.32,1.53,1.53,0,0,0-.12.6,1.22,1.22,0,0,0,.29.88,1.1,1.1,0,0,0,.8.34,1.05,1.05,0,0,0,.83-.29,1.19,1.19,0,0,0,.34-.88,1.23,1.23,0,0,0-.27-.92,1.15,1.15,0,0,0-.84-.33Zm.44,1.83a.59.59,0,0,1-.47.19.62.62,0,0,1-.47-.22.93.93,0,0,1-.16-.6.87.87,0,0,1,.2-.6.56.56,0,0,1,.46-.2.59.59,0,0,1,.45.21.78.78,0,0,1,.17.6,1,1,0,0,1-.18.62Zm1.65-.4h.1a.85.85,0,0,1,.23,0,.4.4,0,0,1,.15.1l.23.34.34.53h.57l-.29-.47a2.26,2.26,0,0,0-.25-.38l-.24-.2a.8.8,0,0,0,.45-.2.6.6,0,0,0,.16-.44.64.64,0,0,0-.1-.38.51.51,0,0,0-.26-.22,1.42,1.42,0,0,0-.54-.08h-1l0,2.34h.48Zm0-.38v-.59l.38,0h.33a.27.27,0,0,1,.17.1s.06.1.06.2a.22.22,0,0,1-.05.17s-.08.08-.13.08a1,1,0,0,1-.43,0h-.33Zm3.35,1.49a.8.8,0,0,0,.33-.17,1,1,0,0,0,.29-.4,1.69,1.69,0,0,0,.08-.5,1.47,1.47,0,0,0-.05-.55.94.94,0,0,0-.2-.4A.86.86,0,0,0,29.6,31a1.3,1.3,0,0,0-.44,0l-.86-.05-.12,2.34.88,0a1.51,1.51,0,0,0,.42,0Zm-.74-1.94H29a2.6,2.6,0,0,1,.39,0,.47.47,0,0,1,.2.12.48.48,0,0,1,.13.23,3,3,0,0,1,0,.42,1.25,1.25,0,0,1-.07.43.45.45,0,0,1-.13.22.3.3,0,0,1-.2.08h-.64Zm11.67,3,.28.08a2.92,2.92,0,0,0,.5.09.67.67,0,0,0,.5-.24.68.68,0,0,0,.16-.33.75.75,0,0,0,0-.47.55.55,0,0,0-.27-.31L41,32.94l-.75-.17L39.72,35l.47.12Zm.23-1h0l.22,0,.32.08a.33.33,0,0,1,.16.15.54.54,0,0,1,0,.22.33.33,0,0,1-.27.25,1.57,1.57,0,0,1-.37-.05l-.25-.07Zm2,1.65.08,0a.43.43,0,0,1,.22.12.41.41,0,0,1,.1.13,3,3,0,0,1,.12.4l.16.6.52.19-.1-.52-.13-.45a1,1,0,0,0-.17-.27.78.78,0,0,0,.5,0,.74.74,0,0,0,.3-.37,1.21,1.21,0,0,0,0-.38.54.54,0,0,0-.17-.3,1.75,1.75,0,0,0-.5-.23l-.92-.33-.78,2.2.43.16ZM43,34l.33.12.33.11a.27.27,0,0,1,.13.15.18.18,0,0,1,0,.2.21.21,0,0,1-.09.15.17.17,0,0,1-.15,0,1.45,1.45,0,0,1-.42-.12l-.32-.11h0Zm2.38,3.07a1,1,0,0,0,.87-.07,1.21,1.21,0,0,0,.57-.74,1.3,1.3,0,0,0,0-1,1.12,1.12,0,0,0-.7-.56,1.54,1.54,0,0,0-.52-.06,1.17,1.17,0,0,0-.33.11,1.05,1.05,0,0,0-.3.25,1.57,1.57,0,0,0-.29.54,1.25,1.25,0,0,0,0,.93,1.16,1.16,0,0,0,.7.55Zm-.26-1.35a.92.92,0,0,1,.36-.54.67.67,0,0,1,.5-.05.62.62,0,0,1,.37.34.83.83,0,0,1,0,.62.84.84,0,0,1-.35.53.63.63,0,0,1-.5.07.64.64,0,0,1-.38-.34.86.86,0,0,1,0-.63Zm4.5,3.34.45-.87.09,0,.2.11a.38.38,0,0,1,.08.17,2,2,0,0,1,.05.42l.07.62.5.24,0-.53a1.89,1.89,0,0,0-.06-.47,1.47,1.47,0,0,0-.14-.28.92.92,0,0,0,.52,0,.59.59,0,0,0,.33-.33.67.67,0,0,0,.07-.37.45.45,0,0,0-.14-.32,1.57,1.57,0,0,0-.45-.31l-.88-.45L49.2,38.86Zm.89-1.74.33.16.3.17a.43.43,0,0,1,.12.17.28.28,0,0,1,0,.2.22.22,0,0,1-.12.13.22.22,0,0,1-.16,0,1.28,1.28,0,0,1-.38-.16l-.32-.17ZM57.62,44a1.11,1.11,0,0,0,.49.75A1.08,1.08,0,0,0,59,45a1.27,1.27,0,0,0,.75-.55,1.32,1.32,0,0,0,.23-.92,1.11,1.11,0,0,0-.49-.75,1.63,1.63,0,0,0-.47-.2,1.15,1.15,0,0,0-.37,0,1.31,1.31,0,0,0-.37.15,1.56,1.56,0,0,0-.41.44,1.25,1.25,0,0,0-.23.9Zm.63-.63a.86.86,0,0,1,.5-.4.51.51,0,0,1,.49.08.61.61,0,0,1,.27.44.87.87,0,0,1-.18.6.88.88,0,0,1-.49.4.54.54,0,0,1-.49-.1.62.62,0,0,1-.27-.42.73.73,0,0,1,.19-.6ZM37.1,34.08h0l.39-1.63,1.2.28,0,.27-.88-.2-.09.36.82.19-.07.28-.81-.2-.11.45.92.22-.06.27Z"/></g></svg>