<?xml version="1.0" encoding="utf-8"?>
<!-- Generator: Adobe Illustrator 26.0.3, SVG Export Plug-In . SVG Version: 6.00 Build 0)  -->
<svg version="1.1" id="Camada_1" xmlns="http://www.w3.org/2000/svg" xmlns:xlink="http://www.w3.org/1999/xlink" x="0px" y="0px"
	 viewBox="0 0 29.1 29" style="enable-background:new 0 0 29.1 29;" xml:space="preserve">
<style type="text/css">
	.st0{fill:#FFFFFF;}
</style>
<g id="Icons-_x2F_-Functional-_x2F_-ic_x5F_search">
	<path id="Icon" class="st0" d="M10.1,0c5.6,0,10.1,4.5,10.1,10.1c0,1.6-0.4,3.1-1,4.4l8.7,8.7c1.3,1.3,1.3,3.4,0,4.6
		c-1.3,1.3-3.4,1.3-4.6,0l0,0l-8.7-8.7c-1.3,0.6-2.8,1-4.4,1c-5.6,0-10.1-4.5-10.1-10.1S4.6,0,10.1,0z M15.8,18.4l8.4,8.4
		c0.7,0.7,1.9,0.7,2.6,0c0.7-0.7,0.7-1.9,0-2.6l0,0l-8.4-8.4C17.7,16.8,16.8,17.7,15.8,18.4z M10.1,1.5c-4.8,0-8.6,3.9-8.6,8.6
		s3.9,8.6,8.6,8.6s8.6-3.9,8.6-8.6S14.9,1.5,10.1,1.5z"/>
</g>
</svg>
