<?xml version="1.0" encoding="utf-8"?>
<!-- Generator: Adobe Illustrator 26.0.3, SVG Export Plug-In . SVG Version: 6.00 Build 0)  -->
<svg version="1.1" id="Camada_1" xmlns="http://www.w3.org/2000/svg" xmlns:xlink="http://www.w3.org/1999/xlink" x="0px" y="0px"
	 viewBox="0 0 62.5 61.9" style="enable-background:new 0 0 62.5 61.9;" xml:space="preserve">
<style type="text/css">
	.st0{fill:#FFFFFF;}
</style>
<g id="Icons-_x2F_-Banking-_x2F_-ic_x5F_chart_x5F_growth">
	<path id="Icon" class="st0" d="M60,58.3c0.8,0,1.5,0.7,1.5,1.5c0,0.8-0.7,1.5-1.5,1.5l0,0H2.1c-0.8,0-1.5-0.7-1.5-1.5
		c0-0.8,0.7-1.5,1.5-1.5l0,0H60z M8.2,33.9c0.8,0,1.5,0.7,1.5,1.5l0,0v18.3c0,0.8-0.7,1.5-1.5,1.5c-0.8,0-1.5-0.7-1.5-1.5l0,0V35.4
		C6.7,34.6,7.4,33.9,8.2,33.9z M23.5,27.8c0.8,0,1.5,0.7,1.5,1.5l0,0v24.4c0,0.8-0.7,1.5-1.5,1.5c-0.8,0-1.5-0.7-1.5-1.5l0,0V29.3
		C22,28.5,22.6,27.8,23.5,27.8z M38.7,18.7c0.8,0,1.5,0.7,1.5,1.5l0,0v33.5c0,0.8-0.7,1.5-1.5,1.5s-1.5-0.7-1.5-1.5l0,0V20.2
		C37.2,19.4,37.9,18.7,38.7,18.7z M53.9,15.6c0.8,0,1.5,0.7,1.5,1.5l0,0v36.6c0,0.8-0.7,1.5-1.5,1.5c-0.8,0-1.5-0.7-1.5-1.5l0,0
		V17.2C52.4,16.3,53.1,15.6,53.9,15.6z M59.1,0.7c0.7-0.5,1.6-0.4,2.1,0.2c0.5,0.7,0.4,1.6-0.2,2.1l0,0L45.8,15.3
		c-0.5,0.4-1.2,0.4-1.8,0.1l0,0l-8.2-5.4L23,21.3c-0.6,0.5-1.4,0.5-2,0.1l0,0l-6.6-5.2L3.2,27.4c-0.6,0.6-1.6,0.6-2.2,0
		s-0.6-1.6,0-2.2l0,0L13.3,13c0.5-0.5,1.4-0.6,2-0.1l0,0l6.6,5.3L34.6,6.9c0.5-0.5,1.3-0.5,1.9-0.1l0,0l8.2,5.5L59.1,0.7z"/>
</g>
</svg>
