<?xml version="1.0" encoding="utf-8"?>
<!-- Generator: Adobe Illustrator 26.0.3, SVG Export Plug-In . SVG Version: 6.00 Build 0)  -->
<svg version="1.1" id="Camada_1" xmlns="http://www.w3.org/2000/svg" xmlns:xlink="http://www.w3.org/1999/xlink" x="0px" y="0px"
	 viewBox="0 0 79.8 93.1" style="enable-background:new 0 0 79.8 93.1;" xml:space="preserve">
<style type="text/css">
	.st0{fill:#FFFFFF;}
</style>
<g id="Icons-_x2F_-Banking-_x2F_-ic_x5F_suppliers_x5F_payment">
	<path id="Icon" class="st0" d="M17.9,49.6c1.1,0,2,0.9,2,2v2h10.8l6.7-3.4c2.6-0.9,4.4-0.7,7.7,0.6l0.9,0.3l13.9,5.5v-5
		c0-1,0.7-1.8,1.6-2l0.4,0h15.9c1.1,0,2,0.9,2,2l0,0v26c0,4.4-3.5,7.9-7.9,7.9l0,0h-10c-1.1,0-2-0.9-2-2l0,0v-3.1l-6.6,4.8
		c-7.8,5.4-18.1,5.7-25.9,0.5l-0.8-0.6l-6.5-4.8v3.1c0,1.1-0.9,2-2,2h-10c-4.4,0-7.9-3.5-7.9-7.9v-26c0-1.1,0.9-2,2-2H17.9z
		 M25.3,57.6l-5.4,0v17.9l8.9,6.5c6.2,4.5,14.7,4.6,21.3,0.5l0.8-0.5l6.1-4.4L40.7,62.8c-0.1,0-0.2,0.1-0.3,0.1l-0.3,0.2
		c-1.5,0.7-3.2,1.6-5.2,2.6c-4,2.1-8.2,2-10.1-1.3C23.4,62.2,23.7,59.7,25.3,57.6z M15.9,53.6H4v24c0,2.2,1.8,3.9,3.9,3.9h8V53.6z
		 M75.8,53.6h-12v27.9h8c2.2,0,3.9-1.8,3.9-3.9l0,0V53.6z M39.3,53.7l-0.3,0.1L30.8,58c-2.7,1.6-3.4,3.1-2.6,4.4
		c0.6,1,2.5,1.1,4.8-0.2c2-1.1,3.8-2,5.3-2.7c0.6-0.3,1-0.5,1.4-0.7l0.6-0.3c0.6-0.3,1.3-0.2,1.8,0.1l0.3,0.2l17.4,15.6V60.9
		l-15.3-6.1C41.7,53.7,40.5,53.4,39.3,53.7z M37.9,9.6c1,0,1.8,0.7,2,1.6l0,0.4l0,1.9c0.9,0.2,1.8,0.5,2.7,0.8
		c1,0.4,1.8,0.8,2.3,1.1c0.9,0.6,1.2,1.8,0.7,2.7s-1.8,1.2-2.7,0.7c-0.3-0.2-0.9-0.5-1.7-0.8c-1.3-0.5-2.6-0.8-3.8-0.8
		c-2.4,0-4,1.1-4,2.4c0,1.4,1.2,2.4,4.7,3.8l0.7,0.3l0.4,0.2c5.5,2.2,7.6,3.6,7.6,7.2c0,3.8-2.7,6.1-6.9,6.6l0,1.7c0,1.1-0.9,2-2,2
		c-1,0-1.8-0.7-2-1.6l0-0.4l0-1.7c-1.6-0.2-3-0.6-4.2-1.2c-1-0.5-1.8-1-2.2-1.5c-0.8-0.8-0.7-2.1,0.1-2.8c0.8-0.8,2.1-0.7,2.8,0.1
		c0.1,0.1,0.4,0.4,1,0.7c1.1,0.5,2.5,0.9,4.3,0.9c3.5,0,5.1-1.1,5.1-2.8c0-1.1-1-1.9-4.4-3.2l-0.7-0.3l-0.4-0.2
		c-5.7-2.3-8-3.9-8-7.8c0-3.5,2.9-5.8,6.6-6.3l0-1.7C35.9,10.5,36.8,9.6,37.9,9.6z"/>
</g>
</svg>
