<?xml version="1.0" encoding="utf-8"?>
<!-- Generator: Adobe Illustrator 26.0.3, SVG Export Plug-In . SVG Version: 6.00 Build 0)  -->
<svg version="1.1" id="Camada_1" xmlns="http://www.w3.org/2000/svg" xmlns:xlink="http://www.w3.org/1999/xlink" x="0px" y="0px"
	 viewBox="0 0 23.9 16.4" style="enable-background:new 0 0 23.9 16.4;" xml:space="preserve">
<style type="text/css">
	.st0{fill:#CC1517;}
</style>
<g id="Icons-_x2F_-Documents-_x2F_-ic_x5F_email">
	<path id="Icon" class="st0" d="M19.1,0c1.2,0,2.3,0.5,3.1,1.2c0,0,0.1,0.1,0.1,0.1c0,0,0,0.1,0.1,0.1c0.8,0.8,1.3,1.9,1.3,3.2l0,0
		v7.2c0,2.5-2,4.6-4.6,4.6l0,0H4.8c-2.5,0-4.6-2-4.6-4.6l0,0V4.6C0.3,2.1,2.3,0,4.8,0l0,0H19.1z M14.9,9l-1.4,1.3
		c-0.9,0.8-2.2,0.8-3.1,0l0,0L9,9l-6.4,5.4c0.5,0.5,1.2,0.8,2,0.8l0.2,0h14.3c0.8,0,1.6-0.3,2.2-0.8L14.9,9z M2.1,2.6
		c-0.4,0.6-0.7,1.3-0.7,2l0,0v7.2c0,0.6,0.2,1.2,0.4,1.6l6.3-5.3L2.1,2.6z M21.8,2.6l-6.1,5.6l6.3,5.3c0.2-0.4,0.4-0.9,0.4-1.4
		l0-0.2V4.6C22.5,3.8,22.3,3.1,21.8,2.6z M19.1,1.2H4.8c-0.7,0-1.4,0.2-1.9,0.6l8.3,7.6c0.4,0.4,1.1,0.4,1.5,0l0,0L21,1.8
		C20.5,1.4,19.8,1.2,19.1,1.2L19.1,1.2z"/>
</g>
</svg>
