<?xml version="1.0" encoding="utf-8"?>
<!-- Generator: Adobe Illustrator 26.0.3, SVG Export Plug-In . SVG Version: 6.00 Build 0)  -->
<svg version="1.1" id="Camada_1" xmlns="http://www.w3.org/2000/svg" xmlns:xlink="http://www.w3.org/1999/xlink" x="0px" y="0px"
	 viewBox="0 0 100 100" style="enable-background:new 0 0 100 100;" xml:space="preserve">
<style type="text/css">
	.st0{fill:#FFFFFF;}
</style>
<g id="Icons_x2F_Channels_x2F_Ic_x5F_Channels_x5F_team_x5F_together">
	<g id="Group">
		<g id="_xD83C__xDF08_-Color">
			<path class="st0" d="M54.9,60.6c4.6,0,7.9,2.1,9.1,5.5c1.5-0.8,3.5-1.3,5.9-1.3l0,0l0.6,0.1c0.4,0.1,1.2,0.3,1.9,0.5
				c0.4,0.1,0.5,0.1,0.7,0.2c0.9,0.2,1.6,0.3,1.8,0.3c0.3,0,0.9-0.1,1.8-0.3c0.3-0.1,0.3-0.1,0.7-0.1c0.8-0.2,1.5-0.3,1.9-0.5l0,0
				l0.6-0.1c5.9,0,9.6,2.9,9.6,7.2c0,6-1.5,12-4.6,17.7l0,0l-2,2.7c3.1,0.5,6.1,1.1,9.1,1.7c1.2,0.3,1.9,1.4,1.7,2.5
				c-0.3,1.1-1.4,1.8-2.6,1.6c-12.6-2.7-26.7-4.1-41.4-4.1c-14.5,0-28.5,1.4-41,4c-1.2,0.3-2.4-0.5-2.6-1.6
				c-0.3-1.1,0.5-2.2,1.7-2.5c2.8-0.6,5.8-1.1,8.7-1.6l-1.9-3c-2.9-5.4-4.4-11.4-4.4-17.4c0-4.4,3.6-7.2,9.5-7.2l0,0l0.6,0.1
				c0.4,0.1,1.2,0.3,1.9,0.5c0.4,0.1,0.5,0.1,0.7,0.2c0.9,0.2,1.6,0.3,1.8,0.3c0.3,0,0.9-0.1,1.8-0.3c0.3-0.1,0.3-0.1,0.7-0.1
				c0.8-0.2,1.5-0.3,1.9-0.5l0,0l0.6-0.1c2.4,0,4.4,0.5,6,1.3c1.2-3.4,4.4-5.5,9-5.5l0,0l0.6,0.1c0.4,0.1,1.1,0.3,1.9,0.5
				c0.4,0.1,0.5,0.1,0.7,0.2c0.9,0.2,1.6,0.3,1.8,0.3c0.3,0,0.9-0.1,1.8-0.3c0.3-0.1,0.3-0.1,0.7-0.2c0.8-0.2,1.5-0.4,1.9-0.5l0,0
				L54.9,60.6z M30.2,69c-0.5,0.1-1.1,0.3-1.8,0.4c-0.4,0.1-0.4,0.1-0.8,0.2c-1.1,0.2-2,0.4-2.7,0.4c-0.7,0-1.6-0.1-2.8-0.4
				c-0.3-0.1-0.4-0.1-0.8-0.2c-0.7-0.1-1.3-0.3-1.8-0.4c-3.3,0.1-4.7,1.2-4.7,3.1c0,5.4,1.3,10.7,3.9,15.5l0,0l2.2,3.5
				c0.2,0.3,0.3,0.5,0.3,0.8c4.5-0.6,9.2-1.1,14-1.4c0-0.1,0-0.3,0-0.4l0,0V72C35.1,70.2,33.6,69,30.2,69z M80.3,69
				c-0.5,0.1-1.1,0.3-1.8,0.4c-0.4,0.1-0.4,0.1-0.8,0.2c-1.1,0.2-2,0.4-2.7,0.4c-0.7,0-1.6-0.1-2.8-0.4c-0.3-0.1-0.4-0.1-0.8-0.2
				c-0.7-0.1-1.3-0.3-1.8-0.4c-3.3,0.1-4.7,1.2-4.7,3.1l0,0v17.9c0,0.2,0,0.3-0.1,0.5c4.6,0.3,9.2,0.8,13.6,1.4
				c0-0.3,0.2-0.6,0.4-0.9l0,0l2.4-3.2c2.6-4.8,3.9-10.2,3.9-15.6C85.2,70.2,83.7,69,80.3,69z M55.2,65.4c-0.5,0.1-1.1,0.3-1.8,0.5
				c-0.4,0.1-0.4,0.1-0.8,0.2c-1.1,0.3-2,0.4-2.7,0.4c-0.7,0-1.6-0.1-2.8-0.4c-0.3-0.1-0.4-0.1-0.8-0.2c-0.7-0.2-1.3-0.3-1.8-0.5
				c-3.3,0.1-4.7,1.4-4.8,3.6l0,0v10.1c0,0.4-0.1,0.8-0.3,1.1l0,9.7c0,0.1,0,0.1,0,0.2c3.4-0.2,6.8-0.2,10.3-0.2
				c3.6,0,7.1,0.1,10.7,0.2l0-0.2l0-9.7c-0.2-0.3-0.3-0.7-0.3-1.1l0,0l0-10C60.1,66.9,58.6,65.5,55.2,65.4z M75.1,35.6
				c6,0,11.3,4.5,10.4,10l0,0l-1,7.7c-0.7,4.4-4.5,7.5-9.3,7.5c-4.8,0-8.6-3-9.3-7.5l0,0l-1-7.5C63.8,40.1,69,35.6,75.1,35.6z
				 M24.9,35.6c6,0,11.3,4.5,10.4,10l0,0l-1,7.7c-0.7,4.4-4.5,7.5-9.3,7.5c-4.8,0-8.6-3-9.3-7.5l0,0l-1-7.5
				C13.6,40.1,18.9,35.6,24.9,35.6z M50,31.4c6,0,11.3,4.5,10.3,10l0,0l-1,7.6c-0.7,4.4-4.5,7.5-9.3,7.5c-4.8,0-8.6-3-9.3-7.5l0,0
				l-1-7.5C38.7,35.9,44,31.4,50,31.4z M75.1,39.8c-3.5,0-6.4,2.5-6,5.2l0,0l1,7.5c0.4,2.4,2.3,3.9,5,3.9c2.7,0,4.6-1.5,5-3.9l0,0
				l1-7.7C81.5,42.3,78.6,39.8,75.1,39.8z M24.9,39.8c-3.5,0-6.4,2.5-6,5.2l0,0l1,7.5c0.4,2.4,2.3,3.9,5,3.9c2.7,0,4.6-1.5,5-3.9
				l0,0l1-7.7C31.4,42.3,28.5,39.8,24.9,39.8z M50,35.6c-3.5,0-6.4,2.5-6,5.2l0,0l1,7.5c0.4,2.4,2.3,3.9,5,3.9c2.7,0,4.6-1.5,5-3.9
				l0,0l1-7.7C56.4,38.1,53.5,35.6,50,35.6z M23.4,24c13.7-12.4,35.3-12.4,48.9,0c0.8,0.7,0.8,1.9,0,2.7c-0.8,0.7-2.1,0.7-3,0
				c-12-10.9-31-10.9-43,0c-0.8,0.7-2.1,0.7-3,0S22.6,24.7,23.4,24z"/>
		</g>
	</g>
</g>
</svg>
