<?xml version="1.0" encoding="utf-8"?>
<!-- Generator: Adobe Illustrator 26.0.3, SVG Export Plug-In . SVG Version: 6.00 Build 0)  -->
<svg version="1.1" id="Camada_1" xmlns="http://www.w3.org/2000/svg" xmlns:xlink="http://www.w3.org/1999/xlink" x="0px" y="0px"
	 viewBox="0 0 15.1 20" style="enable-background:new 0 0 15.1 20;" xml:space="preserve">
<style type="text/css">
	.st0{fill:#FFFFFF;}
</style>
<g id="Icons-_x2F_-Services-_x2F_-ic_x5F_security_x5F_block">
	<path id="Icon" class="st0" d="M2.5,5.8c0-3,2.6-5.3,5.6-5C10.7,1,12.6,3.4,12.6,6l0,0V10l0.5,0c1,0,1.8,0.8,1.8,1.7l0,0.1v3.7
		c0,2-1.6,3.7-3.7,3.7l0,0H3.9c-2,0-3.7-1.6-3.7-3.7l0,0v-3.7c0-1,0.8-1.8,1.9-1.8l0,0l0.5,0V5.8z M13.1,10.9h-11
		c-0.5,0-0.9,0.4-0.9,0.9l0,0v3.7c0,1.5,1.2,2.7,2.7,2.7l0,0h7.4c1.5,0,2.7-1.2,2.7-2.7l0,0v-3.7C14,11.3,13.6,10.9,13.1,10.9
		L13.1,10.9z M7.6,15.5C7.8,15.5,8,15.7,8,16l0,0v0.9c0,0.3-0.2,0.5-0.5,0.5s-0.5-0.2-0.5-0.5l0,0V16C7.1,15.7,7.3,15.5,7.6,15.5z
		 M7.6,11.8C7.8,11.8,8,12,8,12.3l0,0v1.8c0,0.3-0.2,0.5-0.5,0.5s-0.5-0.2-0.5-0.5l0,0v-1.8C7.1,12,7.3,11.8,7.6,11.8z M8,1.7
		C5.5,1.5,3.4,3.4,3.4,5.8l0,0V10h0.9V5.8c0-1.7,1.3-3.1,3-3.2l0.2,0c1.8,0,3.2,1.4,3.2,3.2l0,0V10h0.9V6c0-2.2-1.5-4-3.5-4.3L8,1.7
		z M7.6,3.5c-1.3,0-2.3,1-2.3,2.3l0,0V10h4.6V5.8c0-1.2-0.9-2.2-2.2-2.3L7.6,3.5z"/>
</g>
</svg>
