<?xml version="1.0" encoding="utf-8"?>
<!-- Generator: Adobe Illustrator 26.0.3, SVG Export Plug-In . SVG Version: 6.00 Build 0)  -->
<svg version="1.1" id="Camada_1" xmlns="http://www.w3.org/2000/svg" xmlns:xlink="http://www.w3.org/1999/xlink" x="0px" y="0px"
	 viewBox="0 0 77.1 75.3" style="enable-background:new 0 0 77.1 75.3;" xml:space="preserve">
<style type="text/css">
	.st0{fill:#FFFFFF;}
</style>
<g id="Icons-_x2F_-Banking-_x2F_-ic_x5F_bank_x5F_transactions">
	<path id="Icon" class="st0" d="M1.9,42c2.8-15.3,17.6-25.5,32.9-22.6c1,0.2,1.7,1.2,1.5,2.2c-0.2,1-1.2,1.7-2.2,1.5
		C20.8,20.6,8.1,29.4,5.6,42.7C3.2,56,11.9,68.7,25.2,71.2c13.3,2.5,26.1-6.3,28.5-19.6c0.5-2.9,0.5-5.9,0-8.9c-0.2-1,0.5-2,1.5-2.2
		c1-0.2,2,0.5,2.2,1.5c0.6,3.4,0.6,6.9,0,10.3c-2.8,15.3-17.6,25.5-32.9,22.6C9.2,72.1-0.9,57.3,1.9,42z M29.7,26.4
		c0.9,0,1.7,0.7,1.9,1.5l0,0.3l0,3.5c1.5,0.2,2.9,0.7,4.4,1.2c1.3,0.5,2.4,1.1,3,1.4c0.9,0.5,1.2,1.7,0.6,2.6
		c-0.5,0.9-1.7,1.2-2.6,0.6c-0.4-0.3-1.3-0.7-2.4-1.1c-1.9-0.7-3.7-1.2-5.5-1.2c-3.7,0-6.3,1.8-6.3,4.1c0,2.5,1.8,3.9,7.2,6.1
		l0.8,0.3l0.6,0.2c7.2,2.8,9.8,4.7,9.8,9.1c0,4.9-3.7,7.8-9.5,8.3l0,3.4c0,1-0.8,1.9-1.9,1.9c-0.9,0-1.7-0.7-1.9-1.5l0-0.3l0-3.4
		c-2.3-0.2-4.3-0.7-6-1.6c-1.3-0.6-2.2-1.3-2.7-1.8c-0.7-0.7-0.7-1.9,0-2.7c0.7-0.7,1.9-0.7,2.7,0c0.2,0.2,0.7,0.6,1.7,1.1
		c1.6,0.8,3.7,1.3,6.2,1.3c5.1,0,7.8-1.7,7.8-4.6c0-2-1.6-3.2-6.6-5.3l-0.8-0.3l-0.6-0.2c-7.5-3-10.4-5.1-10.4-9.9
		c0-4.4,3.9-7.4,8.8-7.9l0-3.3C27.8,27.3,28.6,26.4,29.7,26.4z M43.4,23.3l7.6-7.6c0.7-0.7,1.9-0.7,2.7,0c0.7,0.7,0.7,1.7,0.2,2.4
		l-0.2,0.3l-4.3,4.3h25.6c0.9,0,1.7,0.7,1.9,1.5l0,0.3c0,0.9-0.7,1.7-1.5,1.9l-0.3,0H49.3l4.3,4.3c0.7,0.7,0.7,1.7,0.2,2.4l-0.2,0.3
		c-0.7,0.7-1.7,0.7-2.4,0.2L51,33.4l-7.6-7.6l0,0c0,0-0.1-0.1-0.1-0.1c0,0-0.1-0.1-0.1-0.1l-0.1-0.1l0,0c0-0.1-0.1-0.1-0.1-0.2
		c0,0,0-0.1-0.1-0.1c0-0.1,0-0.1,0-0.2l0-0.1l0-0.2l0,0.1c0,0,0-0.1,0-0.1l0-0.1l0,0c0-0.1,0-0.2,0-0.2c0,0,0-0.1,0-0.1
		c0-0.1,0-0.1,0-0.2c0-0.1,0-0.1,0.1-0.2c0-0.1,0-0.1,0.1-0.2c0,0,0-0.1,0.1-0.1l0.1-0.1l0,0l0,0l0,0C43.3,23.4,43.3,23.3,43.4,23.3
		z M68.4,0.4l0.3,0.2l7.6,7.6l0,0c0,0,0.1,0.1,0.1,0.1l0.1,0.1l0,0c0,0,0.1,0.1,0.1,0.1c0,0.1,0.1,0.1,0.1,0.2c0,0,0,0.1,0.1,0.1
		c0,0.1,0,0.1,0,0.2l0,0.2l0,0.2l0-0.1c0,0,0,0.1,0,0.1l0,0.1l0,0c0,0.1,0,0.2,0,0.2l0,0.1l0,0c0,0.1,0,0.1,0,0.2l0,0.1l0,0l0,0.1
		c0,0.1,0,0.1-0.1,0.2c0,0,0,0.1-0.1,0.1l-0.1,0.2l0,0c0,0.1-0.1,0.1-0.1,0.1l-7.6,7.6c-0.7,0.7-1.9,0.7-2.7,0
		c-0.7-0.7-0.7-1.7-0.2-2.4l0.2-0.3l4.3-4.3H44.8c-0.9,0-1.7-0.7-1.9-1.5l0-0.3c0-0.9,0.7-1.7,1.5-1.9l0.3,0h25.6L66,3.3
		c-0.7-0.7-0.7-1.7-0.2-2.4L66,0.6C66.6,0,67.7-0.1,68.4,0.4z"/>
</g>
</svg>
