<?xml version="1.0" encoding="utf-8"?>
<!-- Generator: Adobe Illustrator 26.0.3, SVG Export Plug-In . SVG Version: 6.00 Build 0)  -->
<svg version="1.1" id="Camada_1" xmlns="http://www.w3.org/2000/svg" xmlns:xlink="http://www.w3.org/1999/xlink" x="0px" y="0px"
	 viewBox="0 0 66.5 66.7" style="enable-background:new 0 0 66.5 66.7;" xml:space="preserve">
<style type="text/css">
	.st0{fill:#FFFFFF;}
</style>
<g id="Icons-_x2F_-Services-_x2F_-ic_x5F_international">
	<path id="Icon" class="st0" d="M33.3,3.2c16.6,0,30.1,13.5,30.1,30.1S49.9,63.4,33.3,63.4S3.2,50,3.2,33.3S16.6,3.2,33.3,3.2z
		 M43.3,45.3h-20c1.9,5.5,5.1,10.7,9.6,15.2l-0.1-0.1l0.5,0c0.2,0,0.3,0,0.5,0C38.3,55.9,41.4,50.8,43.3,45.3z M20.1,45.3L9,45.3
		c3.7,7.5,10.8,13.1,19.3,14.6C24.4,55.5,21.7,50.5,20.1,45.3z M57.6,45.3l-11.1,0c-1.6,5.2-4.4,10.2-8.2,14.6
		C46.8,58.4,53.9,52.8,57.6,45.3z M19.3,24.2l-11.6,0c-1,2.8-1.6,5.9-1.6,9.1s0.6,6.2,1.6,9.1l11.6,0C17.9,36.4,17.9,30.2,19.3,24.2
		z M44.2,24.2H22.4c-1.5,6-1.5,12.2,0,18.2h21.8C45.7,36.4,45.7,30.2,44.2,24.2z M58.8,24.2l-11.6,0c1.4,6,1.4,12.2,0,18.2l11.6,0
		c1-2.8,1.6-5.9,1.6-9.1S59.8,27.1,58.8,24.2z M28.2,6.7l-0.4,0.1C19.5,8.5,12.6,14,9,21.3l11.1,0C21.7,16.1,24.4,11.2,28.2,6.7z
		 M33.3,6.2l-0.5,0c-4.5,4.5-7.6,9.7-9.5,15.1h20c-1.9-5.5-5.1-10.7-9.6-15.2l0,0.1L33.3,6.2L33.3,6.2z M38.3,6.7l0.4,0.5
		c3.6,4.3,6.2,9.1,7.7,14.1l11.1,0C53.9,13.8,46.8,8.3,38.3,6.7z"/>
</g>
</svg>
