<?xml version="1.0" encoding="utf-8"?>
<!-- Generator: Adobe Illustrator 26.0.3, SVG Export Plug-In . SVG Version: 6.00 Build 0)  -->
<svg version="1.1" id="Camada_1" xmlns="http://www.w3.org/2000/svg" xmlns:xlink="http://www.w3.org/1999/xlink" x="0px" y="0px"
	 viewBox="0 0 100 100" style="enable-background:new 0 0 100 100;" xml:space="preserve">
<style type="text/css">
	.st0{fill:#FFFFFF;}
</style>
<g id="Icons-_-Banking-_-ic_chart_line" transform="translate(-2 -4)">
	<path id="Icon" class="st0" d="M94.9,99.2c1.2,0,2.3,1,2.3,2.3s-1,2.3-2.3,2.3c0,0,0,0,0,0H9.1c-1.2,0-2.3-1-2.3-2.3
		c0-1.2,1-2.3,2.3-2.3H94.9z M88.2,31.4c5,0,9,4.1,9,9c0,5-4.1,9-9,9c-1.4,0-2.7-0.3-3.9-0.9L71.8,62.8c2.6,4.2,1.3,9.8-3,12.4
		c-4.2,2.6-9.8,1.3-12.4-3c-1.5-2.4-1.7-5.3-0.8-7.9l-10-7.9c-2.8,2.2-6.6,2.6-9.8,1L23.2,71.3c2.9,4.1,2,9.7-2.1,12.6
		s-9.7,2-12.6-2.1c-2.9-4.1-2-9.7,2.1-12.6c2.7-1.9,6.2-2.2,9.1-0.8l12.7-14c-2.8-4.2-1.6-9.8,2.5-12.5c4.2-2.8,9.8-1.6,12.5,2.5
		c1.7,2.5,2,5.7,0.8,8.5l9.9,7.8c2.9-2.5,7-2.9,10.3-1l12.3-14c-2.9-4.1-2-9.7,2.1-12.6C84.4,32,86.3,31.4,88.2,31.4z M15.8,72.1
		c-2.5,0-4.5,2-4.5,4.5c0,2.5,2,4.5,4.5,4.5c2.5,0,4.5-2,4.5-4.5c0-1.3-0.5-2.5-1.5-3.3c-0.1-0.1-0.2-0.2-0.3-0.2c0,0-0.1,0-0.1-0.1
		C17.7,72.4,16.8,72.1,15.8,72.1z M64.1,63.1c-1.5,0-2.9,0.8-3.8,2c-0.5,0.7-0.8,1.6-0.8,2.5c0,2.5,2,4.5,4.5,4.5
		c2.5,0,4.5-2,4.5-4.5c0-1.2-0.5-2.4-1.4-3.2C66.4,63.5,65.2,63,64.1,63.1L64.1,63.1z M39.9,45c-2.5,0-4.5,2-4.5,4.5c0,0,0,0,0,0
		c0,2.5,2,4.5,4.5,4.5s4.5-2,4.5-4.5C44.5,47,42.4,45,39.9,45C39.9,45,39.9,45,39.9,45z M88.2,35.9c-2.5,0-4.5,2-4.5,4.5
		c0,1.4,0.6,2.6,1.6,3.5c0.8,0.7,1.8,1.1,2.9,1c2.5,0,4.5-2,4.5-4.5C92.7,38,90.7,35.9,88.2,35.9L88.2,35.9z"/>
</g>
</svg>
