<?xml version="1.0" encoding="utf-8"?>
<!-- Generator: Adobe Illustrator 26.0.3, SVG Export Plug-In . SVG Version: 6.00 Build 0)  -->
<svg version="1.1" id="Camada_1" xmlns="http://www.w3.org/2000/svg" xmlns:xlink="http://www.w3.org/1999/xlink" x="0px" y="0px"
	 viewBox="0 0 100 100" style="enable-background:new 0 0 100 100;" xml:space="preserve">
<style type="text/css">
	.st0{fill:#FFFFFF;}
</style>
<g id="Icons-_x2F_-Services-_x2F_-ic_x5F_security_x5F_verified">
	<path id="Icon" class="st0" d="M26.3,36.5c0-14.1,12.1-25.2,26.3-23.8c12.3,1.2,21.6,12.1,21.6,24.8l0,0v18.6l2.1,0
		c4.6,0,8.4,3.6,8.7,8.1l0,0.7v17.5c0,9.6-7.7,17.3-17.3,17.3l0,0H32.8c-9.6,0-17.3-7.7-17.3-17.3l0,0V64.8c0-4.8,3.9-8.7,8.7-8.7
		l0,0l2.1,0V36.5z M76.4,60.5H24.2c-2.4,0-4.4,2-4.4,4.4l0,0v17.5c0,7.1,5.8,12.9,12.9,12.9l0,0h35.1c7.1,0,12.9-5.8,12.9-12.9l0,0
		V64.8C80.8,62.4,78.8,60.5,76.4,60.5L76.4,60.5z M59.3,65.9c0.6-1,2-1.4,3-0.7c1,0.6,1.4,2,0.7,3l0,0L50,89.9
		c-0.7,1.2-2.4,1.4-3.4,0.4l0,0l-8.7-8.7c-0.9-0.9-0.9-2.2,0-3.1c0.9-0.9,2.2-0.9,3.1,0l0,0l6.7,6.7L59.3,65.9z M52.2,17
		c-11.6-1.1-21.5,8-21.5,19.5l0,0v19.6H35V36.5c0-8.1,6.4-14.8,14.4-15.2l0.8,0c8.4,0,15.2,6.8,15.2,15.2l0,0v19.6h4.4V37.5
		c0-10.2-7.2-18.9-16.8-20.3L52.2,17z M50.3,25.6c-6,0-10.9,4.9-10.9,10.9l0,0v19.6h21.8V36.5c0-5.8-4.5-10.5-10.2-10.9L50.3,25.6z"
		/>
</g>
</svg>
