<svg id="Camada_1" data-name="Camada 1" xmlns="http://www.w3.org/2000/svg" xmlns:xlink="http://www.w3.org/1999/xlink" viewBox="0 0 79.01 79"><defs><style>.cls-1{fill:none;}.cls-2{clip-path:url(#clip-path);}.cls-3{fill:#dc1215;}.cls-4{fill:#fec605;}</style><clipPath id="clip-path"><rect class="cls-1" width="79" height="79"/></clipPath></defs><g class="cls-2"><g id="Grupo_334" data-name="Grupo 334"><path id="Caminho_574" data-name="Caminho 574" class="cls-3" d="M1.17,30A39.49,39.49,0,1,1,30,77.84h0A39.5,39.5,0,0,1,1.16,30v0"/><path id="Caminho_575" data-name="Caminho 575" class="cls-3" d="M2.31,26.24H76.7a39.49,39.49,0,0,0-74.39,0"/><path id="Caminho_576" data-name="Caminho 576" class="cls-4" d="M78.15,47.62l0-.25.09-.45,0-.25c0-.15.06-.3.08-.46l0-.22.09-.58V45.3l.09-.69v-.17a4,4,0,0,1,.06-.5,1,1,0,0,1,0-.24c0-.15,0-.3,0-.45a1,1,0,0,0,0-.25c0-.08,0-.3,0-.45v-.23a2.74,2.74,0,0,1,0-.5v-.16c0-.23,0-.45,0-.68V38c0-.45,0-.9-.08-1.35v-.18a2.81,2.81,0,0,0,0-.5V35.8a1.88,1.88,0,0,0-.05-.47v-.21a4.53,4.53,0,0,0-.06-.5v-.17c-.06-.45-.12-.89-.2-1.34V33l-.09-.53,0-.19c0-.15-.06-.32-.09-.49l0-.19-.1-.5,0-.16c0-.2-.09-.4-.14-.6v0l-.15-.62h0q-.45-1.74-1.05-3.42H2.31A39.57,39.57,0,0,0,.49,45.7v.07c0,.19.06.37.1.56v.12l.09.49,0,.16c0,.16.07.32.1.49l0,.19c0,.15.06.31.1.46l.05.21c0,.15.06.29.1.44l.08.32c0,.16.08.33.13.5l.13.49.06.21.13.45.06.21.14.45.07.21.15.44.07.21.16.45,0,.1h0l.1.28H76.55l.1-.28h0c.09-.23.16-.46.24-.7v-.07c.11-.3.21-.61.3-.91l0-.13c.09-.29.18-.58.26-.87l.05-.19c.1-.33.19-.68.27-1s.11-.46.17-.69l0-.21.1-.47"/></g></g></svg>