<?xml version="1.0" encoding="utf-8"?>
<!-- Generator: Adobe Illustrator 26.0.3, SVG Export Plug-In . SVG Version: 6.00 Build 0)  -->
<svg version="1.1" id="Camada_1" xmlns="http://www.w3.org/2000/svg" xmlns:xlink="http://www.w3.org/1999/xlink" x="0px" y="0px"
	 viewBox="0 0 53.5 56.1" style="enable-background:new 0 0 53.5 56.1;" xml:space="preserve">
<style type="text/css">
	.st0{fill:#FFFFFF;}
</style>
<g id="Icons-_x2F_-Banking-_x2F_-ic_x5F_mobile_x5F_chart">
	<path id="Icon" class="st0" d="M32.2,0c2.6,0,4.7,2.1,4.7,4.7l0,0l0,6.1c0,0.7-0.5,1.2-1.2,1.2c-0.7,0-1.2-0.5-1.2-1.2l0,0l0-6.1
		c0-1.3-1-2.3-2.3-2.3l0,0H12.7c-1.3,0-2.3,1-2.3,2.3l0,0v38.7c0,1.3,1,2.3,2.3,2.3l0,0h19.5c1.3,0,2.3-1,2.3-2.3l0,0v-8.5
		c0-0.7,0.5-1.2,1.2-1.2s1.2,0.5,1.2,1.2l0,0v8.5c0,2.6-2.1,4.7-4.7,4.7l0,0H12.7c-2.6,0-4.7-2.1-4.7-4.7l0,0V4.7
		C8,2.1,10.1,0,12.7,0l0,0H32.2z M23.7,41c0.7,0,1.2,0.5,1.2,1.2c0,0.7-0.5,1.2-1.2,1.2l0,0h-2.4c-0.7,0-1.2-0.5-1.2-1.2
		c0-0.7,0.5-1.2,1.2-1.2l0,0H23.7z M44.3,10.3c0.4-0.6,1.1-0.7,1.7-0.4c0.6,0.4,0.7,1.1,0.4,1.7l0,0l-8.6,13.7c-0.5,0.7-1.5,0.8-2,0
		l0,0l-2.8-4.2L27,30.8c-0.5,0.8-1.5,0.8-2,0.1l0,0l-2.8-4.1l-2.4,4.1c-0.3,0.6-1.1,0.8-1.6,0.4c-0.6-0.3-0.8-1.1-0.4-1.6l0,0
		l3.3-5.7c0.4-0.8,1.5-0.8,2-0.1l0,0l2.8,4.2l5.8-9.7c0.5-0.8,1.5-0.8,2-0.1l0,0l2.8,4.2L44.3,10.3z M26.1,4.8
		c0.7,0,1.2,0.5,1.2,1.2s-0.5,1.2-1.2,1.2l0,0h-7.2c-0.7,0-1.2-0.5-1.2-1.2s0.5-1.2,1.2-1.2l0,0H26.1z"/>
</g>
</svg>
