<?xml version="1.0" encoding="utf-8"?>
<!-- Generator: Adobe Illustrator 26.0.3, SVG Export Plug-In . SVG Version: 6.00 Build 0)  -->
<svg version="1.1" id="Camada_1" xmlns="http://www.w3.org/2000/svg" xmlns:xlink="http://www.w3.org/1999/xlink" x="0px" y="0px"
	 viewBox="0 0 26.2 25.9" style="enable-background:new 0 0 26.2 25.9;" xml:space="preserve">
<style type="text/css">
	.st0{fill:#CC1517;}
</style>
<g id="Icons_x2F_Channels_x2F_Ic_x5F_Channels_x5F_phone">
	<g id="Group">
		<g id="Icon">
			<path class="st0" d="M17.6,16.2c0.6-1.4,2.2-2.1,3.6-1.6l2.6,1c1.1,0.4,1.8,1.5,1.8,2.7v4.1c0,1.8-1.5,3.3-3.3,3.3
				c-12.1,0-21.9-9.8-21.9-21.9c0-1.8,1.5-3.3,3.3-3.3h4.1c1.2,0,2.2,0.7,2.7,1.8l1,2.6c0.5,1.4-0.2,3-1.6,3.6L7.1,9.6
				c1.9,3.4,5.9,7.4,9.3,9.3L17.6,16.2z M16.5,20.4L16.5,20.4c-4.1-2-8.8-6.8-10.8-10.8C5.5,9.3,5.7,8.9,6,8.7l3.4-1.4
				c0.8-0.3,1.2-1.2,0.9-2l-1-2.6c-0.2-0.6-0.8-1-1.5-1H3.7c-1.1,0-2,0.9-2,2c0,11.4,9.2,20.6,20.6,20.6c1.1,0,2-0.9,2-2v-4.1
				c0-0.7-0.4-1.2-1-1.5l-2.6-1c-0.8-0.3-1.7,0.1-2,0.9L17.3,20C17.2,20.4,16.8,20.5,16.5,20.4z"/>
		</g>
	</g>
</g>
</svg>
