<?xml version="1.0" encoding="utf-8"?>
<!-- Generator: Adobe Illustrator 26.0.3, SVG Export Plug-In . SVG Version: 6.00 Build 0)  -->
<svg version="1.1" id="Camada_1" xmlns="http://www.w3.org/2000/svg" xmlns:xlink="http://www.w3.org/1999/xlink" x="0px" y="0px"
	 viewBox="0 0 100 100" style="enable-background:new 0 0 100 100;" xml:space="preserve">
<style type="text/css">
	.st0{fill:#FFFFFF;}
</style>
<g id="Icons-_x2F_-Banking-_x2F_-ic_x5F_dealer_x5F_reseller">
	<path id="Icon" class="st0" d="M23.1,41.2c1.4,0,2.4,1.1,2.4,2.4v2.4h13.2L47,42c3.2-1.1,5.4-0.8,9.5,0.7l1.1,0.4l17,6.8l0-6.2
		c0-1.2,0.9-2.2,2-2.4l0.4,0h19.6c1.4,0,2.4,1.1,2.4,2.4l0,0v31.9c0,5.4-4.4,9.7-9.7,9.7l0,0H77c-1.4,0-2.4-1.1-2.4-2.4l0,0l0-4.3
		l-0.4-0.4l-7.6,5.5c-9.5,6.9-22.2,7.1-31.9,0.7l-1-0.7l-8-5.8v5c0,1.4-1.1,2.4-2.4,2.4H10.8c-5.4,0-9.7-4.4-9.7-9.7V43.7
		c0-1.4,1.1-2.4,2.4-2.4H23.1z M32.1,51l-6.6,0v20.8l10.9,7.9c7.8,5.7,18.2,5.9,26.2,0.7l0.9-0.7l6.8-4.9L51.1,57.5
		c-0.1,0.1-0.3,0.1-0.4,0.2l-0.4,0.2c-1.8,0.9-4,2-6.3,3.2c-4.9,2.6-10.1,2.4-12.5-1.6C29.8,56.7,30.1,53.7,32.1,51z M20.7,46.1H6
		v29.4c0,2.7,2.2,4.8,4.8,4.8h9.9V48.6v0c0,0,0,0,0,0L20.7,46.1z M94.1,46.1H79.4v34.3h9.9c2.7,0,4.8-2.2,4.8-4.8l0,0V46.1z
		 M55.7,47.6c-3.7-1.5-5.1-1.7-6.8-1.2l0,0l-10,5.1c-3.3,2-4.1,3.8-3.2,5.4c0.7,1.2,3.1,1.3,5.9-0.2c2.4-1.3,4.6-2.4,6.5-3.4
		c1.2-0.6,2-0.9,2.4-1.1c0.9-0.4,1.9-0.2,2.6,0.4l0,0l21.3,19.1l0.1-0.1V55.1L55.7,47.6z"/>
</g>
</svg>
