<svg id="Camada_1" data-name="Camada 1" xmlns="http://www.w3.org/2000/svg" xmlns:xlink="http://www.w3.org/1999/xlink" viewBox="0 0 79.01 79"><defs><style>.cls-1{fill:none;}.cls-2{clip-path:url(#clip-path);}.cls-3{fill:#f4f4f4;}.cls-4{fill:#dc1215;}.cls-5{fill:#202d54;}</style><clipPath id="clip-path"><rect class="cls-1" width="79" height="79"/></clipPath></defs><g class="cls-2"><g id="Grupo_331" data-name="Grupo 331"><path id="Caminho_571" data-name="Caminho 571" class="cls-3" d="M1.17,30A39.49,39.49,0,1,1,30,77.84h0A39.5,39.5,0,0,1,1.16,30h0"/><path id="Caminho_572" data-name="Caminho 572" class="cls-4" d="M76,24.48H45.43v6.05H78a39.13,39.13,0,0,0-2-6.05m-7.8-12.09H45.43v6.05H72.9a39.73,39.73,0,0,0-4.68-6.05M11,66.82H68a39.66,39.66,0,0,0,4.76-6H6.23a39,39,0,0,0,4.75,6M49,1.17C47.8.88,46.62.65,45.43.46V6.34H61A39.58,39.58,0,0,0,49,1.17M78.9,36.58H45.43v6.05H78.87a38.19,38.19,0,0,0,0-6.05M3.06,54.73H75.94A38.55,38.55,0,0,0,77.83,49l.08-.31H1.08a40.4,40.4,0,0,0,2,6M30,77.84a39.5,39.5,0,0,0,7,1.08h5a39.46,39.46,0,0,0,18.57-6H18.36a39.53,39.53,0,0,0,11.65,5"/><path id="Caminho_573" data-name="Caminho 573" class="cls-5" d="M42.44,40.42l-.86-.62-.85.62.33-1-.88-.63h1l.33-1,.32,1h1.06l-.85.62ZM38.24,8.59l.32,1L37.69,9l-.85.62.33-1L36.31,8h1.06l.32-1L38,8h1.06Zm0,9.09.32,1-.87-.61-.85.62.33-1-.86-.62h1.06l.32-1,.33,1h1.06Zm-.08,8.91.33,1L37.63,27l-.85.62.33-1L36.25,26h1.06l.33-1L38,26H39Zm.25,9.8-.85-.62-.86.63.32-1-.85-.62h1.06l.33-1,.32,1h1.06l-.86.62ZM34.22,13l.32,1-.85-.61-.86.61.33-1-.86-.62h1.06l.33-1,.32,1h1.05Zm0,8.81.32,1-.85-.62-.86.62.33-1-.86-.62h1.06l.33-1,.32,1h1.05Zm0,9,.32,1-.85-.62-.86.62.33-1-.86-.62h1.06l.33-1,.32,1h1.05Zm.32,9.61-.85-.62-.86.62.33-1-.86-.62h1.06l.33-1,.32,1h1.05l-.84.61ZM30.34,8.59l.33,1L29.82,9,29,9.58l.33-1L28.44,8h1l.33-1,.32,1H31.2Zm0,9.09.33,1-.85-.62-.86.62.33-1-.85-.62h1l.33-1,.32,1H31.2Zm-.07,8.91.32,1L29.75,27l-.85.62.32-1L28.36,26h1.05l.34-1,.32,1h1.06Zm.24,9.8-.85-.62-.85.62.32-1-.87-.63h1l.33-1,.32,1H31l-.86.62ZM26.32,4.18l.32,1-.87-.6-.83.6.34-1-.87-.61h1.06l.3-1,.32,1h1.06Zm0,8.8.32,1-.87-.59-.85.61.33-1-.85-.62h1.05l.33-1,.32,1h1.06Zm0,8.81.32,1-.87-.61-.85.63.33-1-.85-.62h1.05l.33-1,.32,1h1.06Zm0,9,.32,1-.87-.59-.85.62.33-1-.85-.61h1.05l.33-1,.32,1h1.06Zm.32,9.61-.87-.62-.85.62.33-1-.85-.62h1.05l.33-1,.32,1h1.06l-.85.62ZM22.45,8.27l.33,1-.86-.61-.86.62.33-1-.85-.63h1.05l.33-1,.32,1h1.05Zm0,9.09.33,1-.86-.61-.86.61.33-1-.85-.62h1.05l.32-1,.33,1h1.05Zm-.08,8.91.33,1-.86-.62-.86.62.33-1-.85-.62h1.05l.33-1,.32,1h1.06Zm.25,9.81-.86-.61-.85.62.33-1-.86-.62h1.06l.32-1,.33,1h1.06l-.86.6ZM18.42,13l.33,1-.85-.61L17,14l.33-1-.85-.62h1.05l.33-1,.33,1h1.05Zm0,8.81.33,1-.85-.62L17,22.8l.33-1-.85-.62h1.05l.33-1,.33,1h1.05Zm0,9,.33,1-.85-.62L17,31.8l.33-1-.85-.62h1.05l.33-1,.33,1h1.05Zm.33,9.61-.85-.62-.86.62.33-1-.85-.62h1.05l.33-1,.33,1h1.05l-.86.62ZM14.56,17.28l.32,1L14,17.65l-.86.62.33-1-.85-.62h1l.33-1,.32,1h1.06Zm-.08,8.9.32,1L14,26.57l-.86.62.33-1-.85-.62h1l.33-1,.32,1h1.07ZM14.72,36l-.87-.6L13,36l.33-1-.85-.62h1.06l.32-1,.33,1h1.06L14.4,35ZM33.36,3.57l.33-1,.32,1h1.06l-.85.61.32,1-.85-.62-.86.62.33-1-.86-.61Zm7.9,26.62.32-1,.33,1H43l-.84.62.32,1-.85-.62-.86.62.33-1-.88-.62Zm0-9,.32-1,.33,1H43l-.84.62.32,1-.85-.62-.86.62.33-1-.88-.62Zm0-8.81.32-1,.33,1H43l-.84.62.32,1-.85-.61-.86.61.33-1-.88-.62Zm0-8.8.32-1,.33,1H43l-.85.61.33,1-.86-.62-.85.62.32-1-.87-.61ZM10.53,21.8l.32,1L10,22.18l-.85.62.32-1-.85-.62H9.67l.33-1,.32,1h1Zm0,9,.32,1L10,31.18l-.85.62.32-1-.85-.62H9.67l.33-1,.32,1h1Zm.34,9.61L10,39.8l-.84.62.32-1-.86-.62H9.69l.32-1,.33,1h1l-.86.62ZM6.58,26l.32,1-.85-.62L5.2,27l.32-1-.86-.62H5.72l.33-1,.32,1H7.43Zm.25,9.81L6,35.22l-.86.62.32-1-.85-.64h1l.33-1,.32,1H7.35l-.85.62ZM3,40.42l-.86-.63-.85.62.32-1-.85-.63H1.78l.32-1,.33,1h1l-.85.62ZM45.43.46C45,.4,42.17.09,41.78,0L34.68.3A39.6,39.6,0,0,0,14.73,8.75l.15.44-.37-.26a39,39,0,0,0-3.71,3.44h.57l-.86.62.33,1L10,13.37l-.32.25a35.33,35.33,0,0,0-2.27,2.87h.12l-.25.18c-.17.24-.34.49-.49.74l.22.7-.47-.34A39.6,39.6,0,0,0,1.16,30l0,.17h.66l.32-1,.33,1h1l-.85.62.33,1L2.1,31.2l-.85.62.32-1-.5-.36A39.24,39.24,0,0,0,.13,42.68h45.3Z"/></g></g></svg>